<svg xmlns="http://www.w3.org/2000/svg" xmlns:xlink="http://www.w3.org/1999/xlink"><defs><style>
    .sprite-symbol-usage {display: none;}
    .sprite-symbol-usage:target {display: inline;}
  </style><symbol fill="none" viewBox="0 0 42 48" id="Star_1"><path d="m21 0 10.5 5.917L41.904 12 42 24l-.096 12L31.5 42.083 21 48l-10.5-5.917L.096 36 0 24l.096-12L10.5 5.917 21 0z" fill="#fff" /></symbol><symbol fill="none" viewBox="0 0 251 55" id="full"><path d="M.24 4.71h32.168l8.617 8.621V46.38L32.408 55H.24V4.71zm27.357 41.956 3.662-3.663V16.707l-3.662-3.664H10.005v33.623h17.592zM48.24 4.71H57l22.403 34.126h.144V4.71h9.406V55h-8.76L57.79 20.947h-.144V55h-9.407V4.71zM112.381 4.71h8.904L139.667 55h-9.909l-4.093-11.135h-17.664L103.908 55h-9.91l18.383-50.29zm11.13 31.108-6.678-19.11h-.144l-6.462 19.11h13.284zM156.421 29.36V15.71h-4.308v-5.317h4.404V2.634h6.223v7.76h7.277v5.364h-7.277V27.3l1.628 1.58h5.649v5.364h-8.665l-4.931-4.885zM172.909 29.36V15.375l4.93-4.982h13.452l4.978 4.982v9.052h-17.041v3.065l1.531 1.58h7.803l1.436-1.484v-1.245h6.224v3.113l-4.74 4.79h-13.738l-4.835-4.886zm17.042-9.34v-2.777l-1.628-1.677h-7.468l-1.627 1.677v2.777h10.723zM200.817 29.36V15.28l4.835-4.886h13.117l4.93 4.982v4.406h-6.318v-2.347l-1.676-1.676h-6.893l-1.676 1.676v9.77l1.676 1.677h6.893l1.676-1.676v-2.347h6.318v4.406l-4.93 4.982h-13.117l-4.835-4.886zM227.989 2.634h6.319v11.447l3.686-3.688h7.612l5.313 5.317v18.535H244.6v-16.81l-1.627-1.677h-4.117l-4.548 4.598v13.89h-6.319V2.634z" fill="#fff" /><path fill-rule="evenodd" clip-rule="evenodd" d="M251 55h-96.459V44.623H251V55z" fill="#fff" /></symbol></defs><use id="Star_1-usage" xlink:href="#Star_1" class="sprite-symbol-usage" /><use id="full-usage" xlink:href="#full" class="sprite-symbol-usage" /></svg>